HIERARCHY
ROOT Hips
{
	OFFSET 0.00000 0.00000 0.00000
	CHANNELS 6 Xposition Yposition Zposition Yrotation Zrotation Xrotation 
	JOINT Lumbar
	{
		OFFSET 0 0 0
		CHANNELS 3 Zrotation Xrotation Yrotation
		JOINT Neck
		{
			OFFSET 0.00 0.2701 0.00
			CHANNELS 3 Zrotation Xrotation Yrotation
			End Site
			{
				OFFSET 0.00 0.1379 0.00
			}
		}
		JOINT RightShoulder
		{
			OFFSET 0.0119 0.2289 0.1181
			CHANNELS 3 Zrotation Xrotation Yrotation
			JOINT RightElbow
			{
				OFFSET 0.00 -0.1475 0.00
				CHANNELS 2 Zrotation Yrotation
				JOINT RightWrist
				{
					OFFSET 0.00 -0.1605 0.00
					CHANNELS 2 Zrotation Xrotation
					End Site
					{
						OFFSET 0.0040 -0.1068 0.0006
					}
				}
			}
		}
		JOINT LeftShoulder
		{
			OFFSET 0.0119 0.2289 -0.1181
			CHANNELS 3 Zrotation Xrotation Yrotation
			JOINT LeftElbow
			{
				OFFSET 0.00 -0.1475 0.00
				CHANNELS 2 Zrotation Yrotation
				JOINT LeftWrist
				{
					OFFSET 0.00 -0.1605 0.00
					CHANNELS 2 Zrotation Xrotation
					End Site
					{
						OFFSET 0.0040 -0.1068 -0.0006
					}
				}
			}
		}
	}
	JOINT RightHip
	{
		OFFSET 0.0316 -0.0424 0.0458
		CHANNELS 3 Zrotation Xrotation Yrotation
		JOINT RightKnee
		{
			OFFSET 0.00 -0.2438 0.00
			CHANNELS 1 Zrotation
			JOINT RightAnkle
			{
				OFFSET 0.00 -0.2449 0.00
				CHANNELS 3 Zrotation Xrotation Yrotation
				End Site
				{
					OFFSET 0.1237 -0.0542 0.0051
				}
			}
		}
	}
	JOINT LeftHip
	{
		OFFSET 0.0316 -0.0424 -0.0458
		CHANNELS 3 Zrotation Xrotation Yrotation
		JOINT LeftKnee
		{
			OFFSET 0.00 -0.2438 0.00
			CHANNELS 1 Zrotation
			JOINT LeftAnkle
			{
				OFFSET 0.00 -0.2449 0.00
				CHANNELS 3 Zrotation Xrotation Yrotation
				End Site
				{
					OFFSET 0.1237 -0.0542 -0.0051
				}
			}
		}
	}
}
MOTION
Frames: 11
Frame Time: 0.02
-0.14215 0.58304 0.07289 182.40335 0 -6.31131 -12.97892 -3.00166 3.95942 -9.49421 5.31362 3.46815 91.50171 -21.65769 50.95055 58.07848 110.39476 19.26007 2.94134 51.29847 27.12381 -28.18295 65.5926 -70.63535 -10.29563 -1.04181 -7.37007 0.99752 1.86697 -16.34907 -3.52953 -1.37537 0.9369 2.06293 3.01503 -3.24709 -8.59164 2.65388 0.44959 -3.03749
-0.14244 0.5833 0.07291 182.38665 0 -6.41644 -12.76178 -2.49626 3.70437 -9.67968 5.46401 3.52945 90.85265 -20.71356 51.04913 59.11333 111.25686 20.37218 2.89602 50.07456 27.87134 -27.47971 66.57339 -70.71059 -10.38668 -1.01841 -7.31776 1.04723 1.8644 -16.40079 -3.76855 -1.33537 1.17735 2.04971 3.11993 -3.19839 -8.62589 2.6616 0.45575 -3.05179
-0.1427 0.58366 0.07292 182.37774 0 -6.58042 -12.63988 -1.95724 3.39389 -9.899 5.50289 3.54786 90.10865 -19.91225 51.18437 60.7389 111.8763 21.56889 2.78783 48.67934 28.95974 -26.8159 68.14215 -70.56855 -10.5914 -1.03286 -7.31702 1.14403 1.83976 -16.3246 -4.12448 -1.28248 1.47865 2.03645 3.28415 -3.14615 -8.64638 2.64418 0.46704 -3.06265
-0.14297 0.58397 0.07294 182.36166 0 -6.71664 -12.48273 -1.43642 3.11111 -10.10201 5.59645 3.58522 89.4054 -19.05398 51.30298 62.12172 112.61296 22.71941 2.71232 47.33427 29.8982 -26.125 69.48009 -70.51877 -10.76181 -1.02722 -7.29432 1.21809 1.82606 -16.30189 -4.42648 -1.23649 1.75002 2.0227 3.41999 -3.09554 -8.67163 2.63643 0.47608 -3.07248
-0.14326 0.58429 0.07293 182.35944 0 -6.8584 -12.29216 -0.90206 2.81708 -10.30968 5.66922 3.62365 88.70687 -18.16504 51.42205 63.41446 113.32212 23.8975 2.62157 46.10557 30.82682 -25.47407 70.67912 -70.49247 -10.8598 -1.03461 -7.2653 1.29866 1.80928 -16.29762 -4.73482 -1.18601 2.033 2.0117 3.56329 -3.0434 -8.70479 2.63613 0.48465 -3.09334
-0.14349 0.58462 0.07297 182.33122 0 -7.00204 -12.19453 -0.3887 2.53364 -10.51587 5.76008 3.65054 87.97814 -17.37459 51.54863 65.03074 114.02962 25.04115 2.54673 44.59344 31.85039 -24.7482 72.30289 -70.36625 -11.13551 -1.02374 -7.26188 1.37649 1.79316 -16.22486 -5.05654 -1.14191 2.30517 1.99503 3.70442 -2.99427 -8.71792 2.61429 0.49547 -3.09071
-0.14361 0.58493 0.07312 182.22387 0 -7.13734 -12.31946 0.06211 2.29224 -10.70403 5.9309 3.65126 87.18876 -16.7997 51.68697 67.36265 114.79822 26.05777 2.53194 42.34862 33.07931 -23.81318 74.93824 -70.02992 -11.8715 -0.95042 -7.31485 1.43563 1.78688 -15.99629 -5.38679 -1.11784 2.5362 1.95894 3.8269 -2.95289 -8.67498 2.53956 0.51132 -3.02003
-0.14367 0.58525 0.07332 182.09132 0 -7.27212 -12.5365 0.48965 2.06376 -10.89051 6.12388 3.64293 86.37362 -16.32257 51.83145 70.00261 115.57136 27.03959 2.53474 39.82397 34.38512 -22.80034 77.98123 -69.59989 -12.78244 -0.85767 -7.39215 1.49017 1.78142 -15.70303 -5.7259 -1.10079 2.75327 1.91765 3.94457 -2.91518 -8.61273 2.44392 0.52928 -2.92652
-0.14375 0.58556 0.0735 181.97386 0 -7.40643 -12.71818 0.92553 1.82976 -11.08114 6.30551 3.64188 85.57072 -15.81372 51.97307 72.52067 116.3392 28.04517 2.52889 37.42133 35.638 -21.81757 80.84729 -69.20389 -13.6153 -0.77565 -7.45935 1.54644 1.77387 -15.43832 -6.06052 -1.08101 2.97419 1.88114 4.0631 -2.87681 -8.56196 2.35757 0.54629 -2.84605
-0.14385 0.58588 0.07366 181.84087 0 -7.54593 -12.87557 1.37271 1.59178 -11.25824 6.48852 3.62561 84.76009 -15.25521 52.11648 74.98465 117.11569 29.01968 2.52429 35.03116 36.9818 -20.85666 83.70091 -68.83217 -14.44746 -0.68744 -7.52411 1.60594 1.77301 -15.17277 -6.40162 -1.05883 3.20805 1.83467 4.18948 -2.83373 -8.49991 2.27129 0.56347 -2.75426
-0.14389 0.58618 0.07388 181.73469 0 -7.67357 -13.10442 1.78955 1.36658 -11.46321 6.67546 3.63989 83.96329 -14.82284 52.2569 77.625 117.87408 30.05004 2.5213 32.55494 38.14634 -19.83357 86.66716 -68.3957 -15.31947 -0.60637 -7.59929 1.65696 1.75846 -14.89519 -6.72927 -1.04348 3.41053 1.80744 4.29738 -2.80176 -8.45621 2.18017 0.58068 -2.68062
